PathFileType	4	(X/Y/Z)	c:\Git\powerlifing_model_clean\simulations\HC835B\Session1\HC835B_OGR_0006\marker_experimental.trc
DataRate	CameraRate	NumFrames	NumMarkers	Units	OrigDataRate	OrigDataStartFrame	OrigNumFrames
240.000000	240.000000	4	38	mm	240.000000	110	220
Frame#	Time	RPSI			LPSI			RASI			LASI			RTH1			RTH2			RTH3			RTH4			RSK1			RSK2			RSK3			RSK4			RCAL1			RCAL2			RCAL3			RST			RPT			RTN			RFMB			RSMB			RVMB			RFMH			RSMH			RVMH			RPM			LTH1			LTH2			LTH3			LTH4			LSK1			LSK2			LSK3			LSK4			LCAL1			LCAL2			LCAL3			LFMH			LVMH			
		X1	Y1	Z1	X2	Y2	Z2	X3	Y3	Z3	X4	Y4	Z4	X5	Y5	Z5	X6	Y6	Z6	X7	Y7	Z7	X8	Y8	Z8	X9	Y9	Z9	X10	Y10	Z10	X11	Y11	Z11	X12	Y12	Z12	X13	Y13	Z13	X14	Y14	Z14	X15	Y15	Z15	X16	Y16	Z16	X17	Y17	Z17	X18	Y18	Z18	X19	Y19	Z19	X20	Y20	Z20	X21	Y21	Z21	X22	Y22	Z22	X23	Y23	Z23	X24	Y24	Z24	X25	Y25	Z25	X26	Y26	Z26	X27	Y27	Z27	X28	Y28	Z28	X29	Y29	Z29	X30	Y30	Z30	X31	Y31	Z31	X32	Y32	Z32	X33	Y33	Z33	X34	Y34	Z34	X35	Y35	Z35	X36	Y36	Z36	X37	Y37	Z37	X38	Y38	Z38	

111	0.4583333333333333	443.3006286621095	1173.161987304688	-1353.20654296875	334.3495178222657	1162.028686523438	-1337.94091796875	491.603973388672	1086.30712890625	-1540.611572265625	261.1086425781251	1095.166137695313	-1528.876953125	560.9053344726564	803.217712402344	-1412.025512695313	541.4426269531251	778.9385375976565	-1464.338256835938	546.8750000000001	719.7453002929689	-1413.412109375	518.3449707031251	696.9937744140626	-1459.332275390625	531.8515014648439	541.5300292968751	-1060.267211914063	537.0198364257814	480.0794982910157	-1065.209350585938	533.6973876953126	508.9979858398439	-1011.560974121094	526.4671020507814	449.6768188476564	-1015.996276855469	482.3040161132814	525.2615966796876	-881.2048339843752	442.3384704589845	519.6734008789064	-852.3437500000002	504.985565185547	527.3739624023439	-838.016296386719	437.8192138671876	448.5482177734376	-862.6197509765627	533.3333740234376	468.8875427246095	-836.766784667969	458.3307189941407	393.4497070312501	-872.2165527343752	456.948699951172	365.5691223144532	-850.2302856445315	512.3801879882814	355.4985351562501	-862.224060058594	539.3452148437501	428.1241149902345	-804.4050292968752	450.7354125976564	314.3994140625001	-813.440124511719	506.8529052734376	302.8247375488282	-816.6669921875002	555.0356445312501	352.1593627929688	-782.3447265625002	497.8325195312501	246.9211730957032	-805.7407226562502	190.4540100097657	811.3171386718752	-1505.300659179688	199.6342773437501	819.0049438476565	-1564.893676757813	202.8931884765626	738.9876098632814	-1549.864379882813	228.7175598144532	747.8949584960939	-1604.831909179688	250.8792419433594	293.5370483398438	-1580.24609375	245.1181640625001	283.5888671875001	-1632.92919921875	255.7208709716797	242.4138488769532	-1606.606689453125	263.8760681152344	237.5365447998047	-1663.054321289063	317.8481750488282	82.80974578857423	-1582.6220703125	297.2115173339844	41.18315124511719	-1594.143798828125	354.1522827148438	54.39076232910158	-1594.14794921875	362.6116027832032	114.1978530883789	-1806.351440429688	266.7745971679688	53.76467514038087	-1784.584350585938	
112	0.4625	443.9332275390626	1168.186279296875	-1365.392456054688	334.7723693847657	1157.06689453125	-1350.197998046875	491.5310668945314	1082.34521484375	-1553.254272460938	261.1342468261719	1091.2216796875	-1541.609252929688	561.1239624023439	798.1211547851565	-1427.011596679688	541.8835449218751	774.4155883789065	-1479.649536132813	547.1993408203126	714.6567382812501	-1429.420654296875	518.7435913085939	692.4453735351564	-1475.68310546875	532.8422241210939	542.7285156250001	-1078.902709960938	537.8112792968751	481.1548461914064	-1082.35986328125	534.6748046875001	511.3837280273439	-1029.425659179688	527.3054809570314	451.9634094238282	-1032.397338867188	483.250701904297	530.9903564453126	-900.1328125000002	443.3592224121095	526.3104858398439	-871.0815429687502	505.9642333984376	534.4724121093751	-857.1480712890627	438.874725341797	455.0228881835939	-879.1392822265627	534.3963012695314	476.1489868164064	-853.9224243164065	459.6096496582032	399.501190185547	-887.161071777344	458.2496032714845	372.2260742187501	-864.218200683594	513.6850585937501	361.9017333984376	-876.0187988281252	540.4597778320314	436.3968200683595	-820.3184814453127	452.0690917968751	322.3890686035157	-825.9226684570315	508.151824951172	310.7379150390626	-828.7393798828127	556.2135620117189	361.1702575683594	-795.9212036132815	499.2218627929689	255.0876007080079	-816.0670166015627	191.2849426269532	808.468688964844	-1519.169189453125	199.4954681396485	816.216979980469	-1578.84814453125	203.0799865722657	736.2092895507814	-1564.072509765625	228.1263580322266	745.0898437500001	-1619.466674804688	251.3860473632813	289.9938049316407	-1589.5849609375	245.3736724853516	279.2169189453126	-1642.032470703125	256.1764831542969	238.4639892578126	-1615.2158203125	264.0654602050782	232.5958709716797	-1671.463012695313	319.4162292480469	82.94515991210939	-1589.223754882813	298.0734252929688	41.15151977539063	-1598.852172851563	355.1711425781251	53.47687911987306	-1599.59765625	363.7353515625001	107.4523086547852	-1812.842651367188	267.9833679199219	47.26656341552735	-1789.56982421875	
113	0.4666666666666667	444.6011047363282	1162.909057617188	-1377.50732421875	335.3138427734376	1152.038208007813	-1362.42431640625	491.5889892578126	1078.229614257813	-1565.88330078125	261.0216674804688	1087.18115234375	-1554.404296875	561.4125976562501	792.8684692382815	-1441.997802734375	542.4141845703126	769.7897949218752	-1494.995849609375	547.5689086914064	709.4010009765626	-1445.455810546875	519.2880249023439	687.8093261718751	-1492.07275390625	534.0385742187501	543.8414306640626	-1097.9462890625	538.6149902343751	482.0762939453126	-1099.822265625	535.6099853515626	513.5367431640626	-1047.616333007813	528.0833740234376	453.9877014160157	-1049.194702148438	484.2503967285157	536.5142211914064	-919.3420410156252	444.3349609375001	532.6325073242189	-890.225036621094	506.8594970703126	541.3069458007814	-876.3942871093752	439.9287719726564	461.1693420410157	-896.0721435546877	535.3869628906251	483.0728759765626	-871.5097656250002	460.8165588378907	405.3071899414064	-902.5816650390627	459.570281982422	378.7043457031251	-878.988464355469	515.1816406250001	368.2474060058594	-890.2996215820315	541.5374145507814	444.3865661621095	-836.7855224609377	453.3106079101564	330.0443115234376	-839.0148925781252	509.4520568847657	318.3979187011719	-841.514831542969	557.0796508789064	369.9111328125001	-809.9754028320315	500.5579833984376	263.1204223632813	-827.1328125000002	192.2866973876954	805.2065429687502	-1533.197265625	199.2123260498047	813.193786621094	-1592.920532226563	203.194320678711	733.0198364257814	-1578.459594726563	227.3380126953126	742.2073974609376	-1634.093383789063	251.5876464843751	286.3870239257813	-1598.72998046875	245.578109741211	274.6058654785157	-1651.062255859375	256.4916076660157	234.300033569336	-1623.564453125	264.3966369628907	227.7436828613282	-1679.877807617188	321.4163208007813	83.53303527832033	-1594.759399414063	298.5049743652344	41.84591293334962	-1601.561401367188	356.5092468261719	52.8036231994629	-1603.614868164063	365.6427001953126	99.57923889160159	-1818.496337890625	269.0913696289063	39.73866271972657	-1792.466796875	
114	0.4708333333333333	445.2973632812501	1157.443115234375	-1389.544677734375	335.9027404785157	1146.713989257813	-1374.7314453125	491.6375732421876	1073.8740234375	-1578.464965820313	260.8544311523438	1083.181884765625	-1567.329223632813	561.8063964843751	787.5206298828127	-1457.0234375	543.0562133789064	765.1243896484376	-1510.361083984375	548.0231933593751	704.1108398437501	-1461.557495117188	519.8867187500001	683.0291137695314	-1508.533935546875	535.0491943359376	544.6422729492189	-1117.121337890625	539.4194946289064	482.817596435547	-1117.562255859375	536.6273193359376	515.5322875976564	-1066.09912109375	528.8950805664064	455.916717529297	-1066.268798828125	485.1209716796876	541.7330932617189	-938.8579711914065	445.1784057617189	538.5230712890626	-909.676696777344	507.7116699218751	547.8379516601564	-896.0292968750002	440.6992187500001	467.0931701660157	-913.3524169921877	536.3170166015626	489.7674255371095	-889.5229492187502	462.0360107421876	411.3049926757814	-918.531433105469	460.601776123047	384.8362121582032	-893.6624755859377	516.3219604492189	374.3084106445313	-905.097595214844	542.5074462890626	452.0135192871095	-853.7379150390627	454.2984313964845	337.4201965332032	-852.6544189453127	510.8686828613282	325.9637145996094	-855.0075683593752	558.2002563476564	378.3817443847657	-824.871276855469	502.0314025878907	271.0603637695313	-838.997497558594	192.9713592529297	801.622009277344	-1547.220703125	198.7612915039063	810.0574951171877	-1606.811645507813	203.3868103027344	729.6821289062501	-1592.656005859375	226.2290496826172	738.8129272460939	-1648.9052734375	251.6157989501954	282.5413818359376	-1607.795043945313	245.7216949462891	270.1075134277344	-1660.04248046875	256.7290344238282	230.1763916015626	-1631.852905273438	264.9598693847657	222.5027618408204	-1687.739501953125	325.0034179687501	83.8779754638672	-1599.181274414063	300.2915039062501	41.77225875854493	-1604.424194335938	358.6798400878907	51.4597625732422	-1607.2275390625	366.9523010253907	89.98279571533205	-1823.555419921875	269.8758850097657	32.40839767456055	-1795.698364257813	
